<mxfile host="Electron" agent="Mozilla/5.0 (Windows NT 10.0; Win64; x64) AppleWebKit/537.36 (KHTML, like Gecko) draw.io/27.0.9 Chrome/134.0.6998.205 Electron/35.4.0 Safari/537.36" version="27.0.9">
  <diagram name="Page-1" id="iMxc2N3GZ4oc8e19faD1">
    <mxGraphModel dx="2480" dy="961" grid="0" gridSize="10" guides="1" tooltips="1" connect="1" arrows="1" fold="1" page="1" pageScale="1" pageWidth="827" pageHeight="1169" math="0" shadow="0">
      <root>
        <mxCell id="0" />
        <mxCell id="1" parent="0" />
        <mxCell id="HNp_dcf3mtWXbQcFsmoE-1" value="users" style="shape=table;startSize=30;container=1;collapsible=1;childLayout=tableLayout;fixedRows=1;rowLines=0;fontStyle=1;align=center;resizeLast=1;html=1;fontFamily=&quot;JetBrainsMono Nerd Font Mono&quot;;swimlaneLine=1;rounded=0;fillColor=none;" parent="1" vertex="1">
          <mxGeometry x="-157" y="301" width="180" height="120" as="geometry" />
        </mxCell>
        <mxCell id="HNp_dcf3mtWXbQcFsmoE-2" value="" style="shape=tableRow;horizontal=0;startSize=0;swimlaneHead=0;swimlaneBody=0;fillColor=none;collapsible=0;dropTarget=0;points=[[0,0.5],[1,0.5]];portConstraint=eastwest;top=0;left=0;right=0;bottom=1;fontFamily=&quot;JetBrainsMono Nerd Font Mono&quot;;swimlaneLine=1;" parent="HNp_dcf3mtWXbQcFsmoE-1" vertex="1">
          <mxGeometry y="30" width="180" height="30" as="geometry" />
        </mxCell>
        <mxCell id="HNp_dcf3mtWXbQcFsmoE-3" value="PK" style="shape=partialRectangle;connectable=0;fillColor=none;top=0;left=0;bottom=0;right=0;fontStyle=1;overflow=hidden;whiteSpace=wrap;html=1;fontFamily=&quot;JetBrainsMono Nerd Font Mono&quot;;swimlaneLine=1;" parent="HNp_dcf3mtWXbQcFsmoE-2" vertex="1">
          <mxGeometry width="30" height="30" as="geometry">
            <mxRectangle width="30" height="30" as="alternateBounds" />
          </mxGeometry>
        </mxCell>
        <mxCell id="HNp_dcf3mtWXbQcFsmoE-4" value="id" style="shape=partialRectangle;connectable=0;fillColor=none;top=0;left=0;bottom=0;right=0;align=left;spacingLeft=6;fontStyle=5;overflow=hidden;whiteSpace=wrap;html=1;fontFamily=&quot;JetBrainsMono Nerd Font Mono&quot;;swimlaneLine=1;" parent="HNp_dcf3mtWXbQcFsmoE-2" vertex="1">
          <mxGeometry x="30" width="150" height="30" as="geometry">
            <mxRectangle width="150" height="30" as="alternateBounds" />
          </mxGeometry>
        </mxCell>
        <mxCell id="HNp_dcf3mtWXbQcFsmoE-5" value="" style="shape=tableRow;horizontal=0;startSize=0;swimlaneHead=0;swimlaneBody=0;fillColor=none;collapsible=0;dropTarget=0;points=[[0,0.5],[1,0.5]];portConstraint=eastwest;top=0;left=0;right=0;bottom=0;fontFamily=&quot;JetBrainsMono Nerd Font Mono&quot;;swimlaneLine=1;" parent="HNp_dcf3mtWXbQcFsmoE-1" vertex="1">
          <mxGeometry y="60" width="180" height="30" as="geometry" />
        </mxCell>
        <mxCell id="HNp_dcf3mtWXbQcFsmoE-6" value="" style="shape=partialRectangle;connectable=0;fillColor=none;top=0;left=0;bottom=0;right=0;editable=1;overflow=hidden;whiteSpace=wrap;html=1;fontFamily=&quot;JetBrainsMono Nerd Font Mono&quot;;swimlaneLine=1;" parent="HNp_dcf3mtWXbQcFsmoE-5" vertex="1">
          <mxGeometry width="30" height="30" as="geometry">
            <mxRectangle width="30" height="30" as="alternateBounds" />
          </mxGeometry>
        </mxCell>
        <mxCell id="HNp_dcf3mtWXbQcFsmoE-7" value="username" style="shape=partialRectangle;connectable=0;fillColor=none;top=0;left=0;bottom=0;right=0;align=left;spacingLeft=6;overflow=hidden;whiteSpace=wrap;html=1;fontFamily=&quot;JetBrainsMono Nerd Font Mono&quot;;swimlaneLine=1;" parent="HNp_dcf3mtWXbQcFsmoE-5" vertex="1">
          <mxGeometry x="30" width="150" height="30" as="geometry">
            <mxRectangle width="150" height="30" as="alternateBounds" />
          </mxGeometry>
        </mxCell>
        <mxCell id="HNp_dcf3mtWXbQcFsmoE-8" value="" style="shape=tableRow;horizontal=0;startSize=0;swimlaneHead=0;swimlaneBody=0;fillColor=none;collapsible=0;dropTarget=0;points=[[0,0.5],[1,0.5]];portConstraint=eastwest;top=0;left=0;right=0;bottom=0;fontFamily=&quot;JetBrainsMono Nerd Font Mono&quot;;swimlaneLine=1;" parent="HNp_dcf3mtWXbQcFsmoE-1" vertex="1">
          <mxGeometry y="90" width="180" height="30" as="geometry" />
        </mxCell>
        <mxCell id="HNp_dcf3mtWXbQcFsmoE-9" value="" style="shape=partialRectangle;connectable=0;fillColor=none;top=0;left=0;bottom=0;right=0;editable=1;overflow=hidden;whiteSpace=wrap;html=1;fontFamily=&quot;JetBrainsMono Nerd Font Mono&quot;;swimlaneLine=1;" parent="HNp_dcf3mtWXbQcFsmoE-8" vertex="1">
          <mxGeometry width="30" height="30" as="geometry">
            <mxRectangle width="30" height="30" as="alternateBounds" />
          </mxGeometry>
        </mxCell>
        <mxCell id="HNp_dcf3mtWXbQcFsmoE-10" value="password_hash" style="shape=partialRectangle;connectable=0;fillColor=none;top=0;left=0;bottom=0;right=0;align=left;spacingLeft=6;overflow=hidden;whiteSpace=wrap;html=1;fontFamily=&quot;JetBrainsMono Nerd Font Mono&quot;;swimlaneLine=1;" parent="HNp_dcf3mtWXbQcFsmoE-8" vertex="1">
          <mxGeometry x="30" width="150" height="30" as="geometry">
            <mxRectangle width="150" height="30" as="alternateBounds" />
          </mxGeometry>
        </mxCell>
        <mxCell id="HNp_dcf3mtWXbQcFsmoE-14" value="sessions" style="shape=table;startSize=30;container=1;collapsible=1;childLayout=tableLayout;fixedRows=1;rowLines=0;fontStyle=1;align=center;resizeLast=1;html=1;fontFamily=&quot;JetBrainsMono Nerd Font Mono&quot;;swimlaneLine=1;rounded=0;fillColor=none;" parent="1" vertex="1">
          <mxGeometry x="-467" y="91" width="180" height="120" as="geometry" />
        </mxCell>
        <mxCell id="HNp_dcf3mtWXbQcFsmoE-15" value="" style="shape=tableRow;horizontal=0;startSize=0;swimlaneHead=0;swimlaneBody=0;fillColor=none;collapsible=0;dropTarget=0;points=[[0,0.5],[1,0.5]];portConstraint=eastwest;top=0;left=0;right=0;bottom=1;fontFamily=&quot;JetBrainsMono Nerd Font Mono&quot;;swimlaneLine=1;" parent="HNp_dcf3mtWXbQcFsmoE-14" vertex="1">
          <mxGeometry y="30" width="180" height="30" as="geometry" />
        </mxCell>
        <mxCell id="HNp_dcf3mtWXbQcFsmoE-16" value="PK" style="shape=partialRectangle;connectable=0;fillColor=none;top=0;left=0;bottom=0;right=0;fontStyle=1;overflow=hidden;whiteSpace=wrap;html=1;fontFamily=&quot;JetBrainsMono Nerd Font Mono&quot;;swimlaneLine=1;" parent="HNp_dcf3mtWXbQcFsmoE-15" vertex="1">
          <mxGeometry width="30" height="30" as="geometry">
            <mxRectangle width="30" height="30" as="alternateBounds" />
          </mxGeometry>
        </mxCell>
        <mxCell id="HNp_dcf3mtWXbQcFsmoE-17" value="id" style="shape=partialRectangle;connectable=0;fillColor=none;top=0;left=0;bottom=0;right=0;align=left;spacingLeft=6;fontStyle=5;overflow=hidden;whiteSpace=wrap;html=1;fontFamily=&quot;JetBrainsMono Nerd Font Mono&quot;;swimlaneLine=1;" parent="HNp_dcf3mtWXbQcFsmoE-15" vertex="1">
          <mxGeometry x="30" width="150" height="30" as="geometry">
            <mxRectangle width="150" height="30" as="alternateBounds" />
          </mxGeometry>
        </mxCell>
        <mxCell id="HNp_dcf3mtWXbQcFsmoE-82" value="" style="shape=tableRow;horizontal=0;startSize=0;swimlaneHead=0;swimlaneBody=0;fillColor=none;collapsible=0;dropTarget=0;points=[[0,0.5],[1,0.5]];portConstraint=eastwest;top=0;left=0;right=0;bottom=0;fontFamily=&quot;JetBrainsMono Nerd Font Mono&quot;;" parent="HNp_dcf3mtWXbQcFsmoE-14" vertex="1">
          <mxGeometry y="60" width="180" height="30" as="geometry" />
        </mxCell>
        <mxCell id="HNp_dcf3mtWXbQcFsmoE-83" value="FK" style="shape=partialRectangle;connectable=0;fillColor=none;top=0;left=0;bottom=0;right=0;fontStyle=0;overflow=hidden;whiteSpace=wrap;html=1;fontFamily=&quot;JetBrainsMono Nerd Font Mono&quot;;" parent="HNp_dcf3mtWXbQcFsmoE-82" vertex="1">
          <mxGeometry width="30" height="30" as="geometry">
            <mxRectangle width="30" height="30" as="alternateBounds" />
          </mxGeometry>
        </mxCell>
        <mxCell id="HNp_dcf3mtWXbQcFsmoE-84" value="fk_user_id" style="shape=partialRectangle;connectable=0;fillColor=none;top=0;left=0;bottom=0;right=0;align=left;spacingLeft=6;fontStyle=0;overflow=hidden;whiteSpace=wrap;html=1;fontFamily=&quot;JetBrainsMono Nerd Font Mono&quot;;" parent="HNp_dcf3mtWXbQcFsmoE-82" vertex="1">
          <mxGeometry x="30" width="150" height="30" as="geometry">
            <mxRectangle width="150" height="30" as="alternateBounds" />
          </mxGeometry>
        </mxCell>
        <mxCell id="HNp_dcf3mtWXbQcFsmoE-18" value="" style="shape=tableRow;horizontal=0;startSize=0;swimlaneHead=0;swimlaneBody=0;fillColor=none;collapsible=0;dropTarget=0;points=[[0,0.5],[1,0.5]];portConstraint=eastwest;top=0;left=0;right=0;bottom=0;fontFamily=&quot;JetBrainsMono Nerd Font Mono&quot;;swimlaneLine=1;" parent="HNp_dcf3mtWXbQcFsmoE-14" vertex="1">
          <mxGeometry y="90" width="180" height="30" as="geometry" />
        </mxCell>
        <mxCell id="HNp_dcf3mtWXbQcFsmoE-19" value="" style="shape=partialRectangle;connectable=0;fillColor=none;top=0;left=0;bottom=0;right=0;editable=1;overflow=hidden;whiteSpace=wrap;html=1;fontFamily=&quot;JetBrainsMono Nerd Font Mono&quot;;swimlaneLine=1;" parent="HNp_dcf3mtWXbQcFsmoE-18" vertex="1">
          <mxGeometry width="30" height="30" as="geometry">
            <mxRectangle width="30" height="30" as="alternateBounds" />
          </mxGeometry>
        </mxCell>
        <mxCell id="HNp_dcf3mtWXbQcFsmoE-20" value="expires_at" style="shape=partialRectangle;connectable=0;fillColor=none;top=0;left=0;bottom=0;right=0;align=left;spacingLeft=6;overflow=hidden;whiteSpace=wrap;html=1;fontFamily=&quot;JetBrainsMono Nerd Font Mono&quot;;swimlaneLine=1;" parent="HNp_dcf3mtWXbQcFsmoE-18" vertex="1">
          <mxGeometry x="30" width="150" height="30" as="geometry">
            <mxRectangle width="150" height="30" as="alternateBounds" />
          </mxGeometry>
        </mxCell>
        <mxCell id="HNp_dcf3mtWXbQcFsmoE-27" value="comments" style="shape=table;startSize=30;container=1;collapsible=1;childLayout=tableLayout;fixedRows=1;rowLines=0;fontStyle=1;align=center;resizeLast=1;html=1;fontFamily=&quot;JetBrainsMono Nerd Font Mono&quot;;swimlaneLine=1;rounded=0;fillColor=none;" parent="1" vertex="1">
          <mxGeometry x="-532" y="291" width="190" height="300" as="geometry" />
        </mxCell>
        <mxCell id="HNp_dcf3mtWXbQcFsmoE-28" value="" style="shape=tableRow;horizontal=0;startSize=0;swimlaneHead=0;swimlaneBody=0;fillColor=none;collapsible=0;dropTarget=0;points=[[0,0.5],[1,0.5]];portConstraint=eastwest;top=0;left=0;right=0;bottom=1;fontFamily=&quot;JetBrainsMono Nerd Font Mono&quot;;swimlaneLine=1;" parent="HNp_dcf3mtWXbQcFsmoE-27" vertex="1">
          <mxGeometry y="30" width="190" height="30" as="geometry" />
        </mxCell>
        <mxCell id="HNp_dcf3mtWXbQcFsmoE-29" value="PK" style="shape=partialRectangle;connectable=0;fillColor=none;top=0;left=0;bottom=0;right=0;fontStyle=1;overflow=hidden;whiteSpace=wrap;html=1;fontFamily=&quot;JetBrainsMono Nerd Font Mono&quot;;swimlaneLine=1;" parent="HNp_dcf3mtWXbQcFsmoE-28" vertex="1">
          <mxGeometry width="30" height="30" as="geometry">
            <mxRectangle width="30" height="30" as="alternateBounds" />
          </mxGeometry>
        </mxCell>
        <mxCell id="HNp_dcf3mtWXbQcFsmoE-30" value="id" style="shape=partialRectangle;connectable=0;fillColor=none;top=0;left=0;bottom=0;right=0;align=left;spacingLeft=6;fontStyle=5;overflow=hidden;whiteSpace=wrap;html=1;fontFamily=&quot;JetBrainsMono Nerd Font Mono&quot;;swimlaneLine=1;" parent="HNp_dcf3mtWXbQcFsmoE-28" vertex="1">
          <mxGeometry x="30" width="160" height="30" as="geometry">
            <mxRectangle width="160" height="30" as="alternateBounds" />
          </mxGeometry>
        </mxCell>
        <mxCell id="HNp_dcf3mtWXbQcFsmoE-97" value="" style="shape=tableRow;horizontal=0;startSize=0;swimlaneHead=0;swimlaneBody=0;fillColor=none;collapsible=0;dropTarget=0;points=[[0,0.5],[1,0.5]];portConstraint=eastwest;top=0;left=0;right=0;bottom=0;fontFamily=&quot;JetBrainsMono Nerd Font Mono&quot;;" parent="HNp_dcf3mtWXbQcFsmoE-27" vertex="1">
          <mxGeometry y="60" width="190" height="30" as="geometry" />
        </mxCell>
        <mxCell id="HNp_dcf3mtWXbQcFsmoE-98" value="FK" style="shape=partialRectangle;connectable=0;fillColor=none;top=0;left=0;bottom=0;right=0;fontStyle=0;overflow=hidden;whiteSpace=wrap;html=1;fontFamily=&quot;JetBrainsMono Nerd Font Mono&quot;;" parent="HNp_dcf3mtWXbQcFsmoE-97" vertex="1">
          <mxGeometry width="30" height="30" as="geometry">
            <mxRectangle width="30" height="30" as="alternateBounds" />
          </mxGeometry>
        </mxCell>
        <mxCell id="HNp_dcf3mtWXbQcFsmoE-99" value="fk_user_id" style="shape=partialRectangle;connectable=0;fillColor=none;top=0;left=0;bottom=0;right=0;align=left;spacingLeft=6;fontStyle=0;overflow=hidden;whiteSpace=wrap;html=1;fontFamily=&quot;JetBrainsMono Nerd Font Mono&quot;;" parent="HNp_dcf3mtWXbQcFsmoE-97" vertex="1">
          <mxGeometry x="30" width="160" height="30" as="geometry">
            <mxRectangle width="160" height="30" as="alternateBounds" />
          </mxGeometry>
        </mxCell>
        <mxCell id="HNp_dcf3mtWXbQcFsmoE-103" value="" style="shape=tableRow;horizontal=0;startSize=0;swimlaneHead=0;swimlaneBody=0;fillColor=none;collapsible=0;dropTarget=0;points=[[0,0.5],[1,0.5]];portConstraint=eastwest;top=0;left=0;right=0;bottom=0;fontFamily=&quot;JetBrainsMono Nerd Font Mono&quot;;" parent="HNp_dcf3mtWXbQcFsmoE-27" vertex="1">
          <mxGeometry y="90" width="190" height="30" as="geometry" />
        </mxCell>
        <mxCell id="HNp_dcf3mtWXbQcFsmoE-104" value="FK" style="shape=partialRectangle;connectable=0;fillColor=none;top=0;left=0;bottom=0;right=0;fontStyle=0;overflow=hidden;whiteSpace=wrap;html=1;fontFamily=&quot;JetBrainsMono Nerd Font Mono&quot;;" parent="HNp_dcf3mtWXbQcFsmoE-103" vertex="1">
          <mxGeometry width="30" height="30" as="geometry">
            <mxRectangle width="30" height="30" as="alternateBounds" />
          </mxGeometry>
        </mxCell>
        <mxCell id="HNp_dcf3mtWXbQcFsmoE-105" value="fk_post_id" style="shape=partialRectangle;connectable=0;fillColor=none;top=0;left=0;bottom=0;right=0;align=left;spacingLeft=6;fontStyle=0;overflow=hidden;whiteSpace=wrap;html=1;fontFamily=&quot;JetBrainsMono Nerd Font Mono&quot;;" parent="HNp_dcf3mtWXbQcFsmoE-103" vertex="1">
          <mxGeometry x="30" width="160" height="30" as="geometry">
            <mxRectangle width="160" height="30" as="alternateBounds" />
          </mxGeometry>
        </mxCell>
        <mxCell id="HNp_dcf3mtWXbQcFsmoE-106" value="" style="shape=tableRow;horizontal=0;startSize=0;swimlaneHead=0;swimlaneBody=0;fillColor=none;collapsible=0;dropTarget=0;points=[[0,0.5],[1,0.5]];portConstraint=eastwest;top=0;left=0;right=0;bottom=0;fontFamily=&quot;JetBrainsMono Nerd Font Mono&quot;;" parent="HNp_dcf3mtWXbQcFsmoE-27" vertex="1">
          <mxGeometry y="120" width="190" height="30" as="geometry" />
        </mxCell>
        <mxCell id="HNp_dcf3mtWXbQcFsmoE-107" value="FK" style="shape=partialRectangle;connectable=0;fillColor=none;top=0;left=0;bottom=0;right=0;fontStyle=0;overflow=hidden;whiteSpace=wrap;html=1;fontFamily=&quot;JetBrainsMono Nerd Font Mono&quot;;" parent="HNp_dcf3mtWXbQcFsmoE-106" vertex="1">
          <mxGeometry width="30" height="30" as="geometry">
            <mxRectangle width="30" height="30" as="alternateBounds" />
          </mxGeometry>
        </mxCell>
        <mxCell id="HNp_dcf3mtWXbQcFsmoE-108" value="fk_parent_comment_id" style="shape=partialRectangle;connectable=0;fillColor=none;top=0;left=0;bottom=0;right=0;align=left;spacingLeft=6;fontStyle=0;overflow=hidden;whiteSpace=wrap;html=1;fontFamily=&quot;JetBrainsMono Nerd Font Mono&quot;;" parent="HNp_dcf3mtWXbQcFsmoE-106" vertex="1">
          <mxGeometry x="30" width="160" height="30" as="geometry">
            <mxRectangle width="160" height="30" as="alternateBounds" />
          </mxGeometry>
        </mxCell>
        <mxCell id="HNp_dcf3mtWXbQcFsmoE-31" value="" style="shape=tableRow;horizontal=0;startSize=0;swimlaneHead=0;swimlaneBody=0;fillColor=none;collapsible=0;dropTarget=0;points=[[0,0.5],[1,0.5]];portConstraint=eastwest;top=0;left=0;right=0;bottom=0;fontFamily=&quot;JetBrainsMono Nerd Font Mono&quot;;swimlaneLine=1;" parent="HNp_dcf3mtWXbQcFsmoE-27" vertex="1">
          <mxGeometry y="150" width="190" height="30" as="geometry" />
        </mxCell>
        <mxCell id="HNp_dcf3mtWXbQcFsmoE-32" value="" style="shape=partialRectangle;connectable=0;fillColor=none;top=0;left=0;bottom=0;right=0;editable=1;overflow=hidden;whiteSpace=wrap;html=1;fontFamily=&quot;JetBrainsMono Nerd Font Mono&quot;;swimlaneLine=1;" parent="HNp_dcf3mtWXbQcFsmoE-31" vertex="1">
          <mxGeometry width="30" height="30" as="geometry">
            <mxRectangle width="30" height="30" as="alternateBounds" />
          </mxGeometry>
        </mxCell>
        <mxCell id="HNp_dcf3mtWXbQcFsmoE-33" value="content" style="shape=partialRectangle;connectable=0;fillColor=none;top=0;left=0;bottom=0;right=0;align=left;spacingLeft=6;overflow=hidden;whiteSpace=wrap;html=1;fontFamily=&quot;JetBrainsMono Nerd Font Mono&quot;;swimlaneLine=1;" parent="HNp_dcf3mtWXbQcFsmoE-31" vertex="1">
          <mxGeometry x="30" width="160" height="30" as="geometry">
            <mxRectangle width="160" height="30" as="alternateBounds" />
          </mxGeometry>
        </mxCell>
        <mxCell id="HNp_dcf3mtWXbQcFsmoE-34" value="" style="shape=tableRow;horizontal=0;startSize=0;swimlaneHead=0;swimlaneBody=0;fillColor=none;collapsible=0;dropTarget=0;points=[[0,0.5],[1,0.5]];portConstraint=eastwest;top=0;left=0;right=0;bottom=0;fontFamily=&quot;JetBrainsMono Nerd Font Mono&quot;;swimlaneLine=1;" parent="HNp_dcf3mtWXbQcFsmoE-27" vertex="1">
          <mxGeometry y="180" width="190" height="30" as="geometry" />
        </mxCell>
        <mxCell id="HNp_dcf3mtWXbQcFsmoE-35" value="" style="shape=partialRectangle;connectable=0;fillColor=none;top=0;left=0;bottom=0;right=0;editable=1;overflow=hidden;whiteSpace=wrap;html=1;fontFamily=&quot;JetBrainsMono Nerd Font Mono&quot;;swimlaneLine=1;" parent="HNp_dcf3mtWXbQcFsmoE-34" vertex="1">
          <mxGeometry width="30" height="30" as="geometry">
            <mxRectangle width="30" height="30" as="alternateBounds" />
          </mxGeometry>
        </mxCell>
        <mxCell id="HNp_dcf3mtWXbQcFsmoE-36" value="created_at" style="shape=partialRectangle;connectable=0;fillColor=none;top=0;left=0;bottom=0;right=0;align=left;spacingLeft=6;overflow=hidden;whiteSpace=wrap;html=1;fontFamily=&quot;JetBrainsMono Nerd Font Mono&quot;;swimlaneLine=1;" parent="HNp_dcf3mtWXbQcFsmoE-34" vertex="1">
          <mxGeometry x="30" width="160" height="30" as="geometry">
            <mxRectangle width="160" height="30" as="alternateBounds" />
          </mxGeometry>
        </mxCell>
        <mxCell id="HNp_dcf3mtWXbQcFsmoE-37" value="" style="shape=tableRow;horizontal=0;startSize=0;swimlaneHead=0;swimlaneBody=0;fillColor=none;collapsible=0;dropTarget=0;points=[[0,0.5],[1,0.5]];portConstraint=eastwest;top=0;left=0;right=0;bottom=0;fontFamily=&quot;JetBrainsMono Nerd Font Mono&quot;;swimlaneLine=1;" parent="HNp_dcf3mtWXbQcFsmoE-27" vertex="1">
          <mxGeometry y="210" width="190" height="30" as="geometry" />
        </mxCell>
        <mxCell id="HNp_dcf3mtWXbQcFsmoE-38" value="" style="shape=partialRectangle;connectable=0;fillColor=none;top=0;left=0;bottom=0;right=0;editable=1;overflow=hidden;whiteSpace=wrap;html=1;fontFamily=&quot;JetBrainsMono Nerd Font Mono&quot;;swimlaneLine=1;" parent="HNp_dcf3mtWXbQcFsmoE-37" vertex="1">
          <mxGeometry width="30" height="30" as="geometry">
            <mxRectangle width="30" height="30" as="alternateBounds" />
          </mxGeometry>
        </mxCell>
        <mxCell id="HNp_dcf3mtWXbQcFsmoE-39" value="depth" style="shape=partialRectangle;connectable=0;fillColor=none;top=0;left=0;bottom=0;right=0;align=left;spacingLeft=6;overflow=hidden;whiteSpace=wrap;html=1;fontFamily=&quot;JetBrainsMono Nerd Font Mono&quot;;swimlaneLine=1;" parent="HNp_dcf3mtWXbQcFsmoE-37" vertex="1">
          <mxGeometry x="30" width="160" height="30" as="geometry">
            <mxRectangle width="160" height="30" as="alternateBounds" />
          </mxGeometry>
        </mxCell>
        <mxCell id="HNp_dcf3mtWXbQcFsmoE-109" value="" style="shape=tableRow;horizontal=0;startSize=0;swimlaneHead=0;swimlaneBody=0;fillColor=none;collapsible=0;dropTarget=0;points=[[0,0.5],[1,0.5]];portConstraint=eastwest;top=0;left=0;right=0;bottom=0;fontFamily=&quot;JetBrainsMono Nerd Font Mono&quot;;" parent="HNp_dcf3mtWXbQcFsmoE-27" vertex="1">
          <mxGeometry y="240" width="190" height="30" as="geometry" />
        </mxCell>
        <mxCell id="HNp_dcf3mtWXbQcFsmoE-110" value="" style="shape=partialRectangle;connectable=0;fillColor=none;top=0;left=0;bottom=0;right=0;editable=1;overflow=hidden;fontFamily=&quot;JetBrainsMono Nerd Font Mono&quot;;" parent="HNp_dcf3mtWXbQcFsmoE-109" vertex="1">
          <mxGeometry width="30" height="30" as="geometry">
            <mxRectangle width="30" height="30" as="alternateBounds" />
          </mxGeometry>
        </mxCell>
        <mxCell id="HNp_dcf3mtWXbQcFsmoE-111" value="comment_count" style="shape=partialRectangle;connectable=0;fillColor=none;top=0;left=0;bottom=0;right=0;align=left;spacingLeft=6;overflow=hidden;fontFamily=&quot;JetBrainsMono Nerd Font Mono&quot;;" parent="HNp_dcf3mtWXbQcFsmoE-109" vertex="1">
          <mxGeometry x="30" width="160" height="30" as="geometry">
            <mxRectangle width="160" height="30" as="alternateBounds" />
          </mxGeometry>
        </mxCell>
        <mxCell id="HNp_dcf3mtWXbQcFsmoE-112" value="" style="shape=tableRow;horizontal=0;startSize=0;swimlaneHead=0;swimlaneBody=0;fillColor=none;collapsible=0;dropTarget=0;points=[[0,0.5],[1,0.5]];portConstraint=eastwest;top=0;left=0;right=0;bottom=0;fontFamily=&quot;JetBrainsMono Nerd Font Mono&quot;;" parent="HNp_dcf3mtWXbQcFsmoE-27" vertex="1">
          <mxGeometry y="270" width="190" height="30" as="geometry" />
        </mxCell>
        <mxCell id="HNp_dcf3mtWXbQcFsmoE-113" value="" style="shape=partialRectangle;connectable=0;fillColor=none;top=0;left=0;bottom=0;right=0;editable=1;overflow=hidden;fontFamily=&quot;JetBrainsMono Nerd Font Mono&quot;;" parent="HNp_dcf3mtWXbQcFsmoE-112" vertex="1">
          <mxGeometry width="30" height="30" as="geometry">
            <mxRectangle width="30" height="30" as="alternateBounds" />
          </mxGeometry>
        </mxCell>
        <mxCell id="HNp_dcf3mtWXbQcFsmoE-114" value="points" style="shape=partialRectangle;connectable=0;fillColor=none;top=0;left=0;bottom=0;right=0;align=left;spacingLeft=6;overflow=hidden;fontFamily=&quot;JetBrainsMono Nerd Font Mono&quot;;" parent="HNp_dcf3mtWXbQcFsmoE-112" vertex="1">
          <mxGeometry x="30" width="160" height="30" as="geometry">
            <mxRectangle width="160" height="30" as="alternateBounds" />
          </mxGeometry>
        </mxCell>
        <mxCell id="iQcwkecCsa2AcmOMzSZV-15" value="" style="edgeStyle=elbowEdgeStyle;fontSize=12;html=1;endArrow=ERzeroToMany;startArrow=ERmandOne;rounded=0;entryX=0;entryY=0.5;entryDx=0;entryDy=0;exitX=0;exitY=0.5;exitDx=0;exitDy=0;" edge="1" parent="HNp_dcf3mtWXbQcFsmoE-27" source="HNp_dcf3mtWXbQcFsmoE-106" target="HNp_dcf3mtWXbQcFsmoE-28">
          <mxGeometry width="100" height="100" relative="1" as="geometry">
            <mxPoint x="-245" y="120" as="sourcePoint" />
            <mxPoint x="-95" y="180" as="targetPoint" />
            <Array as="points">
              <mxPoint x="-45" y="90" />
            </Array>
          </mxGeometry>
        </mxCell>
        <mxCell id="HNp_dcf3mtWXbQcFsmoE-40" value="comment_upvotes" style="shape=table;startSize=30;container=1;collapsible=1;childLayout=tableLayout;fixedRows=1;rowLines=0;fontStyle=1;align=center;resizeLast=1;html=1;fontFamily=&quot;JetBrainsMono Nerd Font Mono&quot;;swimlaneLine=1;rounded=0;fillColor=none;" parent="1" vertex="1">
          <mxGeometry x="-527" y="651" width="180" height="150" as="geometry" />
        </mxCell>
        <mxCell id="HNp_dcf3mtWXbQcFsmoE-41" value="" style="shape=tableRow;horizontal=0;startSize=0;swimlaneHead=0;swimlaneBody=0;fillColor=none;collapsible=0;dropTarget=0;points=[[0,0.5],[1,0.5]];portConstraint=eastwest;top=0;left=0;right=0;bottom=1;fontFamily=&quot;JetBrainsMono Nerd Font Mono&quot;;swimlaneLine=1;" parent="HNp_dcf3mtWXbQcFsmoE-40" vertex="1">
          <mxGeometry y="30" width="180" height="30" as="geometry" />
        </mxCell>
        <mxCell id="HNp_dcf3mtWXbQcFsmoE-42" value="PK" style="shape=partialRectangle;connectable=0;fillColor=none;top=0;left=0;bottom=0;right=0;fontStyle=1;overflow=hidden;whiteSpace=wrap;html=1;fontFamily=&quot;JetBrainsMono Nerd Font Mono&quot;;swimlaneLine=1;" parent="HNp_dcf3mtWXbQcFsmoE-41" vertex="1">
          <mxGeometry width="30" height="30" as="geometry">
            <mxRectangle width="30" height="30" as="alternateBounds" />
          </mxGeometry>
        </mxCell>
        <mxCell id="HNp_dcf3mtWXbQcFsmoE-43" value="id" style="shape=partialRectangle;connectable=0;fillColor=none;top=0;left=0;bottom=0;right=0;align=left;spacingLeft=6;fontStyle=5;overflow=hidden;whiteSpace=wrap;html=1;fontFamily=&quot;JetBrainsMono Nerd Font Mono&quot;;swimlaneLine=1;" parent="HNp_dcf3mtWXbQcFsmoE-41" vertex="1">
          <mxGeometry x="30" width="150" height="30" as="geometry">
            <mxRectangle width="150" height="30" as="alternateBounds" />
          </mxGeometry>
        </mxCell>
        <mxCell id="HNp_dcf3mtWXbQcFsmoE-137" value="" style="shape=tableRow;horizontal=0;startSize=0;swimlaneHead=0;swimlaneBody=0;fillColor=none;collapsible=0;dropTarget=0;points=[[0,0.5],[1,0.5]];portConstraint=eastwest;top=0;left=0;right=0;bottom=0;fontFamily=&quot;JetBrainsMono Nerd Font Mono&quot;;" parent="HNp_dcf3mtWXbQcFsmoE-40" vertex="1">
          <mxGeometry y="60" width="180" height="30" as="geometry" />
        </mxCell>
        <mxCell id="HNp_dcf3mtWXbQcFsmoE-138" value="FK" style="shape=partialRectangle;connectable=0;fillColor=none;top=0;left=0;bottom=0;right=0;fontStyle=0;overflow=hidden;whiteSpace=wrap;html=1;fontFamily=&quot;JetBrainsMono Nerd Font Mono&quot;;" parent="HNp_dcf3mtWXbQcFsmoE-137" vertex="1">
          <mxGeometry width="30" height="30" as="geometry">
            <mxRectangle width="30" height="30" as="alternateBounds" />
          </mxGeometry>
        </mxCell>
        <mxCell id="HNp_dcf3mtWXbQcFsmoE-139" value="fk_user_id" style="shape=partialRectangle;connectable=0;fillColor=none;top=0;left=0;bottom=0;right=0;align=left;spacingLeft=6;fontStyle=0;overflow=hidden;whiteSpace=wrap;html=1;fontFamily=&quot;JetBrainsMono Nerd Font Mono&quot;;" parent="HNp_dcf3mtWXbQcFsmoE-137" vertex="1">
          <mxGeometry x="30" width="150" height="30" as="geometry">
            <mxRectangle width="150" height="30" as="alternateBounds" />
          </mxGeometry>
        </mxCell>
        <mxCell id="HNp_dcf3mtWXbQcFsmoE-134" value="" style="shape=tableRow;horizontal=0;startSize=0;swimlaneHead=0;swimlaneBody=0;fillColor=none;collapsible=0;dropTarget=0;points=[[0,0.5],[1,0.5]];portConstraint=eastwest;top=0;left=0;right=0;bottom=0;fontFamily=&quot;JetBrainsMono Nerd Font Mono&quot;;" parent="HNp_dcf3mtWXbQcFsmoE-40" vertex="1">
          <mxGeometry y="90" width="180" height="30" as="geometry" />
        </mxCell>
        <mxCell id="HNp_dcf3mtWXbQcFsmoE-135" value="FK" style="shape=partialRectangle;connectable=0;fillColor=none;top=0;left=0;bottom=0;right=0;fontStyle=0;overflow=hidden;whiteSpace=wrap;html=1;fontFamily=&quot;JetBrainsMono Nerd Font Mono&quot;;" parent="HNp_dcf3mtWXbQcFsmoE-134" vertex="1">
          <mxGeometry width="30" height="30" as="geometry">
            <mxRectangle width="30" height="30" as="alternateBounds" />
          </mxGeometry>
        </mxCell>
        <mxCell id="HNp_dcf3mtWXbQcFsmoE-136" value="fk_comment_id" style="shape=partialRectangle;connectable=0;fillColor=none;top=0;left=0;bottom=0;right=0;align=left;spacingLeft=6;fontStyle=0;overflow=hidden;whiteSpace=wrap;html=1;fontFamily=&quot;JetBrainsMono Nerd Font Mono&quot;;" parent="HNp_dcf3mtWXbQcFsmoE-134" vertex="1">
          <mxGeometry x="30" width="150" height="30" as="geometry">
            <mxRectangle width="150" height="30" as="alternateBounds" />
          </mxGeometry>
        </mxCell>
        <mxCell id="HNp_dcf3mtWXbQcFsmoE-44" value="" style="shape=tableRow;horizontal=0;startSize=0;swimlaneHead=0;swimlaneBody=0;fillColor=none;collapsible=0;dropTarget=0;points=[[0,0.5],[1,0.5]];portConstraint=eastwest;top=0;left=0;right=0;bottom=0;fontFamily=&quot;JetBrainsMono Nerd Font Mono&quot;;swimlaneLine=1;" parent="HNp_dcf3mtWXbQcFsmoE-40" vertex="1">
          <mxGeometry y="120" width="180" height="30" as="geometry" />
        </mxCell>
        <mxCell id="HNp_dcf3mtWXbQcFsmoE-45" value="" style="shape=partialRectangle;connectable=0;fillColor=none;top=0;left=0;bottom=0;right=0;editable=1;overflow=hidden;whiteSpace=wrap;html=1;fontFamily=&quot;JetBrainsMono Nerd Font Mono&quot;;swimlaneLine=1;" parent="HNp_dcf3mtWXbQcFsmoE-44" vertex="1">
          <mxGeometry width="30" height="30" as="geometry">
            <mxRectangle width="30" height="30" as="alternateBounds" />
          </mxGeometry>
        </mxCell>
        <mxCell id="HNp_dcf3mtWXbQcFsmoE-46" value="created_at" style="shape=partialRectangle;connectable=0;fillColor=none;top=0;left=0;bottom=0;right=0;align=left;spacingLeft=6;overflow=hidden;whiteSpace=wrap;html=1;fontFamily=&quot;JetBrainsMono Nerd Font Mono&quot;;swimlaneLine=1;" parent="HNp_dcf3mtWXbQcFsmoE-44" vertex="1">
          <mxGeometry x="30" width="150" height="30" as="geometry">
            <mxRectangle width="150" height="30" as="alternateBounds" />
          </mxGeometry>
        </mxCell>
        <mxCell id="HNp_dcf3mtWXbQcFsmoE-53" value="post_upvotes" style="shape=table;startSize=30;container=1;collapsible=1;childLayout=tableLayout;fixedRows=1;rowLines=0;fontStyle=1;align=center;resizeLast=1;html=1;fontFamily=&quot;JetBrainsMono Nerd Font Mono&quot;;swimlaneLine=1;rounded=0;fillColor=none;" parent="1" vertex="1">
          <mxGeometry x="133" y="91" width="180" height="150" as="geometry" />
        </mxCell>
        <mxCell id="HNp_dcf3mtWXbQcFsmoE-54" value="" style="shape=tableRow;horizontal=0;startSize=0;swimlaneHead=0;swimlaneBody=0;fillColor=none;collapsible=0;dropTarget=0;points=[[0,0.5],[1,0.5]];portConstraint=eastwest;top=0;left=0;right=0;bottom=1;fontFamily=&quot;JetBrainsMono Nerd Font Mono&quot;;swimlaneLine=1;" parent="HNp_dcf3mtWXbQcFsmoE-53" vertex="1">
          <mxGeometry y="30" width="180" height="30" as="geometry" />
        </mxCell>
        <mxCell id="HNp_dcf3mtWXbQcFsmoE-55" value="PK" style="shape=partialRectangle;connectable=0;fillColor=none;top=0;left=0;bottom=0;right=0;fontStyle=1;overflow=hidden;whiteSpace=wrap;html=1;fontFamily=&quot;JetBrainsMono Nerd Font Mono&quot;;swimlaneLine=1;" parent="HNp_dcf3mtWXbQcFsmoE-54" vertex="1">
          <mxGeometry width="30" height="30" as="geometry">
            <mxRectangle width="30" height="30" as="alternateBounds" />
          </mxGeometry>
        </mxCell>
        <mxCell id="HNp_dcf3mtWXbQcFsmoE-56" value="id" style="shape=partialRectangle;connectable=0;fillColor=none;top=0;left=0;bottom=0;right=0;align=left;spacingLeft=6;fontStyle=5;overflow=hidden;whiteSpace=wrap;html=1;fontFamily=&quot;JetBrainsMono Nerd Font Mono&quot;;swimlaneLine=1;" parent="HNp_dcf3mtWXbQcFsmoE-54" vertex="1">
          <mxGeometry x="30" width="150" height="30" as="geometry">
            <mxRectangle width="150" height="30" as="alternateBounds" />
          </mxGeometry>
        </mxCell>
        <mxCell id="HNp_dcf3mtWXbQcFsmoE-118" value="" style="shape=tableRow;horizontal=0;startSize=0;swimlaneHead=0;swimlaneBody=0;fillColor=none;collapsible=0;dropTarget=0;points=[[0,0.5],[1,0.5]];portConstraint=eastwest;top=0;left=0;right=0;bottom=0;fontFamily=&quot;JetBrainsMono Nerd Font Mono&quot;;" parent="HNp_dcf3mtWXbQcFsmoE-53" vertex="1">
          <mxGeometry y="60" width="180" height="30" as="geometry" />
        </mxCell>
        <mxCell id="HNp_dcf3mtWXbQcFsmoE-119" value="FK" style="shape=partialRectangle;connectable=0;fillColor=none;top=0;left=0;bottom=0;right=0;fontStyle=0;overflow=hidden;whiteSpace=wrap;html=1;fontFamily=&quot;JetBrainsMono Nerd Font Mono&quot;;" parent="HNp_dcf3mtWXbQcFsmoE-118" vertex="1">
          <mxGeometry width="30" height="30" as="geometry">
            <mxRectangle width="30" height="30" as="alternateBounds" />
          </mxGeometry>
        </mxCell>
        <mxCell id="HNp_dcf3mtWXbQcFsmoE-120" value="fk_user_id" style="shape=partialRectangle;connectable=0;fillColor=none;top=0;left=0;bottom=0;right=0;align=left;spacingLeft=6;fontStyle=0;overflow=hidden;whiteSpace=wrap;html=1;fontFamily=&quot;JetBrainsMono Nerd Font Mono&quot;;" parent="HNp_dcf3mtWXbQcFsmoE-118" vertex="1">
          <mxGeometry x="30" width="150" height="30" as="geometry">
            <mxRectangle width="150" height="30" as="alternateBounds" />
          </mxGeometry>
        </mxCell>
        <mxCell id="HNp_dcf3mtWXbQcFsmoE-115" value="" style="shape=tableRow;horizontal=0;startSize=0;swimlaneHead=0;swimlaneBody=0;fillColor=none;collapsible=0;dropTarget=0;points=[[0,0.5],[1,0.5]];portConstraint=eastwest;top=0;left=0;right=0;bottom=0;fontFamily=&quot;JetBrainsMono Nerd Font Mono&quot;;" parent="HNp_dcf3mtWXbQcFsmoE-53" vertex="1">
          <mxGeometry y="90" width="180" height="30" as="geometry" />
        </mxCell>
        <mxCell id="HNp_dcf3mtWXbQcFsmoE-116" value="FK" style="shape=partialRectangle;connectable=0;fillColor=none;top=0;left=0;bottom=0;right=0;fontStyle=0;overflow=hidden;whiteSpace=wrap;html=1;fontFamily=&quot;JetBrainsMono Nerd Font Mono&quot;;" parent="HNp_dcf3mtWXbQcFsmoE-115" vertex="1">
          <mxGeometry width="30" height="30" as="geometry">
            <mxRectangle width="30" height="30" as="alternateBounds" />
          </mxGeometry>
        </mxCell>
        <mxCell id="HNp_dcf3mtWXbQcFsmoE-117" value="fk_post_id" style="shape=partialRectangle;connectable=0;fillColor=none;top=0;left=0;bottom=0;right=0;align=left;spacingLeft=6;fontStyle=0;overflow=hidden;whiteSpace=wrap;html=1;fontFamily=&quot;JetBrainsMono Nerd Font Mono&quot;;" parent="HNp_dcf3mtWXbQcFsmoE-115" vertex="1">
          <mxGeometry x="30" width="150" height="30" as="geometry">
            <mxRectangle width="150" height="30" as="alternateBounds" />
          </mxGeometry>
        </mxCell>
        <mxCell id="HNp_dcf3mtWXbQcFsmoE-60" value="" style="shape=tableRow;horizontal=0;startSize=0;swimlaneHead=0;swimlaneBody=0;fillColor=none;collapsible=0;dropTarget=0;points=[[0,0.5],[1,0.5]];portConstraint=eastwest;top=0;left=0;right=0;bottom=0;fontFamily=&quot;JetBrainsMono Nerd Font Mono&quot;;swimlaneLine=1;" parent="HNp_dcf3mtWXbQcFsmoE-53" vertex="1">
          <mxGeometry y="120" width="180" height="30" as="geometry" />
        </mxCell>
        <mxCell id="HNp_dcf3mtWXbQcFsmoE-61" value="" style="shape=partialRectangle;connectable=0;fillColor=none;top=0;left=0;bottom=0;right=0;editable=1;overflow=hidden;whiteSpace=wrap;html=1;fontFamily=&quot;JetBrainsMono Nerd Font Mono&quot;;swimlaneLine=1;" parent="HNp_dcf3mtWXbQcFsmoE-60" vertex="1">
          <mxGeometry width="30" height="30" as="geometry">
            <mxRectangle width="30" height="30" as="alternateBounds" />
          </mxGeometry>
        </mxCell>
        <mxCell id="HNp_dcf3mtWXbQcFsmoE-62" value="created_at" style="shape=partialRectangle;connectable=0;fillColor=none;top=0;left=0;bottom=0;right=0;align=left;spacingLeft=6;overflow=hidden;whiteSpace=wrap;html=1;fontFamily=&quot;JetBrainsMono Nerd Font Mono&quot;;swimlaneLine=1;" parent="HNp_dcf3mtWXbQcFsmoE-60" vertex="1">
          <mxGeometry x="30" width="150" height="30" as="geometry">
            <mxRectangle width="150" height="30" as="alternateBounds" />
          </mxGeometry>
        </mxCell>
        <mxCell id="HNp_dcf3mtWXbQcFsmoE-66" value="posts" style="shape=table;startSize=30;container=1;collapsible=1;childLayout=tableLayout;fixedRows=1;rowLines=0;fontStyle=1;align=center;resizeLast=1;html=1;fontFamily=&quot;JetBrainsMono Nerd Font Mono&quot;;swimlaneLine=1;rounded=0;fillColor=none;" parent="1" vertex="1">
          <mxGeometry x="133" y="471" width="180" height="270" as="geometry" />
        </mxCell>
        <mxCell id="HNp_dcf3mtWXbQcFsmoE-67" value="" style="shape=tableRow;horizontal=0;startSize=0;swimlaneHead=0;swimlaneBody=0;fillColor=none;collapsible=0;dropTarget=0;points=[[0,0.5],[1,0.5]];portConstraint=eastwest;top=0;left=0;right=0;bottom=1;fontFamily=&quot;JetBrainsMono Nerd Font Mono&quot;;swimlaneLine=1;" parent="HNp_dcf3mtWXbQcFsmoE-66" vertex="1">
          <mxGeometry y="30" width="180" height="30" as="geometry" />
        </mxCell>
        <mxCell id="HNp_dcf3mtWXbQcFsmoE-68" value="PK" style="shape=partialRectangle;connectable=0;fillColor=none;top=0;left=0;bottom=0;right=0;fontStyle=1;overflow=hidden;whiteSpace=wrap;html=1;fontFamily=&quot;JetBrainsMono Nerd Font Mono&quot;;swimlaneLine=1;" parent="HNp_dcf3mtWXbQcFsmoE-67" vertex="1">
          <mxGeometry width="30" height="30" as="geometry">
            <mxRectangle width="30" height="30" as="alternateBounds" />
          </mxGeometry>
        </mxCell>
        <mxCell id="HNp_dcf3mtWXbQcFsmoE-69" value="id" style="shape=partialRectangle;connectable=0;fillColor=none;top=0;left=0;bottom=0;right=0;align=left;spacingLeft=6;fontStyle=5;overflow=hidden;whiteSpace=wrap;html=1;fontFamily=&quot;JetBrainsMono Nerd Font Mono&quot;;swimlaneLine=1;" parent="HNp_dcf3mtWXbQcFsmoE-67" vertex="1">
          <mxGeometry x="30" width="150" height="30" as="geometry">
            <mxRectangle width="150" height="30" as="alternateBounds" />
          </mxGeometry>
        </mxCell>
        <mxCell id="HNp_dcf3mtWXbQcFsmoE-85" value="" style="shape=tableRow;horizontal=0;startSize=0;swimlaneHead=0;swimlaneBody=0;fillColor=none;collapsible=0;dropTarget=0;points=[[0,0.5],[1,0.5]];portConstraint=eastwest;top=0;left=0;right=0;bottom=0;fontFamily=&quot;JetBrainsMono Nerd Font Mono&quot;;" parent="HNp_dcf3mtWXbQcFsmoE-66" vertex="1">
          <mxGeometry y="60" width="180" height="30" as="geometry" />
        </mxCell>
        <mxCell id="HNp_dcf3mtWXbQcFsmoE-86" value="FK" style="shape=partialRectangle;connectable=0;fillColor=none;top=0;left=0;bottom=0;right=0;fontStyle=0;overflow=hidden;whiteSpace=wrap;html=1;fontFamily=&quot;JetBrainsMono Nerd Font Mono&quot;;" parent="HNp_dcf3mtWXbQcFsmoE-85" vertex="1">
          <mxGeometry width="30" height="30" as="geometry">
            <mxRectangle width="30" height="30" as="alternateBounds" />
          </mxGeometry>
        </mxCell>
        <mxCell id="HNp_dcf3mtWXbQcFsmoE-87" value="fk_user_id" style="shape=partialRectangle;connectable=0;fillColor=none;top=0;left=0;bottom=0;right=0;align=left;spacingLeft=6;fontStyle=0;overflow=hidden;whiteSpace=wrap;html=1;fontFamily=&quot;JetBrainsMono Nerd Font Mono&quot;;" parent="HNp_dcf3mtWXbQcFsmoE-85" vertex="1">
          <mxGeometry x="30" width="150" height="30" as="geometry">
            <mxRectangle width="150" height="30" as="alternateBounds" />
          </mxGeometry>
        </mxCell>
        <mxCell id="HNp_dcf3mtWXbQcFsmoE-70" value="" style="shape=tableRow;horizontal=0;startSize=0;swimlaneHead=0;swimlaneBody=0;fillColor=none;collapsible=0;dropTarget=0;points=[[0,0.5],[1,0.5]];portConstraint=eastwest;top=0;left=0;right=0;bottom=0;fontFamily=&quot;JetBrainsMono Nerd Font Mono&quot;;swimlaneLine=1;" parent="HNp_dcf3mtWXbQcFsmoE-66" vertex="1">
          <mxGeometry y="90" width="180" height="30" as="geometry" />
        </mxCell>
        <mxCell id="HNp_dcf3mtWXbQcFsmoE-71" value="" style="shape=partialRectangle;connectable=0;fillColor=none;top=0;left=0;bottom=0;right=0;editable=1;overflow=hidden;whiteSpace=wrap;html=1;fontFamily=&quot;JetBrainsMono Nerd Font Mono&quot;;swimlaneLine=1;" parent="HNp_dcf3mtWXbQcFsmoE-70" vertex="1">
          <mxGeometry width="30" height="30" as="geometry">
            <mxRectangle width="30" height="30" as="alternateBounds" />
          </mxGeometry>
        </mxCell>
        <mxCell id="HNp_dcf3mtWXbQcFsmoE-72" value="title" style="shape=partialRectangle;connectable=0;fillColor=none;top=0;left=0;bottom=0;right=0;align=left;spacingLeft=6;overflow=hidden;whiteSpace=wrap;html=1;fontFamily=&quot;JetBrainsMono Nerd Font Mono&quot;;swimlaneLine=1;" parent="HNp_dcf3mtWXbQcFsmoE-70" vertex="1">
          <mxGeometry x="30" width="150" height="30" as="geometry">
            <mxRectangle width="150" height="30" as="alternateBounds" />
          </mxGeometry>
        </mxCell>
        <mxCell id="HNp_dcf3mtWXbQcFsmoE-73" value="" style="shape=tableRow;horizontal=0;startSize=0;swimlaneHead=0;swimlaneBody=0;fillColor=none;collapsible=0;dropTarget=0;points=[[0,0.5],[1,0.5]];portConstraint=eastwest;top=0;left=0;right=0;bottom=0;fontFamily=&quot;JetBrainsMono Nerd Font Mono&quot;;swimlaneLine=1;" parent="HNp_dcf3mtWXbQcFsmoE-66" vertex="1">
          <mxGeometry y="120" width="180" height="30" as="geometry" />
        </mxCell>
        <mxCell id="HNp_dcf3mtWXbQcFsmoE-74" value="" style="shape=partialRectangle;connectable=0;fillColor=none;top=0;left=0;bottom=0;right=0;editable=1;overflow=hidden;whiteSpace=wrap;html=1;fontFamily=&quot;JetBrainsMono Nerd Font Mono&quot;;swimlaneLine=1;" parent="HNp_dcf3mtWXbQcFsmoE-73" vertex="1">
          <mxGeometry width="30" height="30" as="geometry">
            <mxRectangle width="30" height="30" as="alternateBounds" />
          </mxGeometry>
        </mxCell>
        <mxCell id="HNp_dcf3mtWXbQcFsmoE-75" value="url" style="shape=partialRectangle;connectable=0;fillColor=none;top=0;left=0;bottom=0;right=0;align=left;spacingLeft=6;overflow=hidden;whiteSpace=wrap;html=1;fontFamily=&quot;JetBrainsMono Nerd Font Mono&quot;;swimlaneLine=1;" parent="HNp_dcf3mtWXbQcFsmoE-73" vertex="1">
          <mxGeometry x="30" width="150" height="30" as="geometry">
            <mxRectangle width="150" height="30" as="alternateBounds" />
          </mxGeometry>
        </mxCell>
        <mxCell id="HNp_dcf3mtWXbQcFsmoE-76" value="" style="shape=tableRow;horizontal=0;startSize=0;swimlaneHead=0;swimlaneBody=0;fillColor=none;collapsible=0;dropTarget=0;points=[[0,0.5],[1,0.5]];portConstraint=eastwest;top=0;left=0;right=0;bottom=0;fontFamily=&quot;JetBrainsMono Nerd Font Mono&quot;;swimlaneLine=1;" parent="HNp_dcf3mtWXbQcFsmoE-66" vertex="1">
          <mxGeometry y="150" width="180" height="30" as="geometry" />
        </mxCell>
        <mxCell id="HNp_dcf3mtWXbQcFsmoE-77" value="" style="shape=partialRectangle;connectable=0;fillColor=none;top=0;left=0;bottom=0;right=0;editable=1;overflow=hidden;whiteSpace=wrap;html=1;fontFamily=&quot;JetBrainsMono Nerd Font Mono&quot;;swimlaneLine=1;" parent="HNp_dcf3mtWXbQcFsmoE-76" vertex="1">
          <mxGeometry width="30" height="30" as="geometry">
            <mxRectangle width="30" height="30" as="alternateBounds" />
          </mxGeometry>
        </mxCell>
        <mxCell id="HNp_dcf3mtWXbQcFsmoE-78" value="content" style="shape=partialRectangle;connectable=0;fillColor=none;top=0;left=0;bottom=0;right=0;align=left;spacingLeft=6;overflow=hidden;whiteSpace=wrap;html=1;fontFamily=&quot;JetBrainsMono Nerd Font Mono&quot;;swimlaneLine=1;" parent="HNp_dcf3mtWXbQcFsmoE-76" vertex="1">
          <mxGeometry x="30" width="150" height="30" as="geometry">
            <mxRectangle width="150" height="30" as="alternateBounds" />
          </mxGeometry>
        </mxCell>
        <mxCell id="HNp_dcf3mtWXbQcFsmoE-88" value="" style="shape=tableRow;horizontal=0;startSize=0;swimlaneHead=0;swimlaneBody=0;fillColor=none;collapsible=0;dropTarget=0;points=[[0,0.5],[1,0.5]];portConstraint=eastwest;top=0;left=0;right=0;bottom=0;fontFamily=&quot;JetBrainsMono Nerd Font Mono&quot;;" parent="HNp_dcf3mtWXbQcFsmoE-66" vertex="1">
          <mxGeometry y="180" width="180" height="30" as="geometry" />
        </mxCell>
        <mxCell id="HNp_dcf3mtWXbQcFsmoE-89" value="" style="shape=partialRectangle;connectable=0;fillColor=none;top=0;left=0;bottom=0;right=0;editable=1;overflow=hidden;fontFamily=&quot;JetBrainsMono Nerd Font Mono&quot;;" parent="HNp_dcf3mtWXbQcFsmoE-88" vertex="1">
          <mxGeometry width="30" height="30" as="geometry">
            <mxRectangle width="30" height="30" as="alternateBounds" />
          </mxGeometry>
        </mxCell>
        <mxCell id="HNp_dcf3mtWXbQcFsmoE-90" value="points" style="shape=partialRectangle;connectable=0;fillColor=none;top=0;left=0;bottom=0;right=0;align=left;spacingLeft=6;overflow=hidden;fontFamily=&quot;JetBrainsMono Nerd Font Mono&quot;;" parent="HNp_dcf3mtWXbQcFsmoE-88" vertex="1">
          <mxGeometry x="30" width="150" height="30" as="geometry">
            <mxRectangle width="150" height="30" as="alternateBounds" />
          </mxGeometry>
        </mxCell>
        <mxCell id="HNp_dcf3mtWXbQcFsmoE-91" value="" style="shape=tableRow;horizontal=0;startSize=0;swimlaneHead=0;swimlaneBody=0;fillColor=none;collapsible=0;dropTarget=0;points=[[0,0.5],[1,0.5]];portConstraint=eastwest;top=0;left=0;right=0;bottom=0;fontFamily=&quot;JetBrainsMono Nerd Font Mono&quot;;" parent="HNp_dcf3mtWXbQcFsmoE-66" vertex="1">
          <mxGeometry y="210" width="180" height="30" as="geometry" />
        </mxCell>
        <mxCell id="HNp_dcf3mtWXbQcFsmoE-92" value="" style="shape=partialRectangle;connectable=0;fillColor=none;top=0;left=0;bottom=0;right=0;editable=1;overflow=hidden;fontFamily=&quot;JetBrainsMono Nerd Font Mono&quot;;" parent="HNp_dcf3mtWXbQcFsmoE-91" vertex="1">
          <mxGeometry width="30" height="30" as="geometry">
            <mxRectangle width="30" height="30" as="alternateBounds" />
          </mxGeometry>
        </mxCell>
        <mxCell id="HNp_dcf3mtWXbQcFsmoE-93" value="comment_count" style="shape=partialRectangle;connectable=0;fillColor=none;top=0;left=0;bottom=0;right=0;align=left;spacingLeft=6;overflow=hidden;fontFamily=&quot;JetBrainsMono Nerd Font Mono&quot;;" parent="HNp_dcf3mtWXbQcFsmoE-91" vertex="1">
          <mxGeometry x="30" width="150" height="30" as="geometry">
            <mxRectangle width="150" height="30" as="alternateBounds" />
          </mxGeometry>
        </mxCell>
        <mxCell id="HNp_dcf3mtWXbQcFsmoE-94" value="" style="shape=tableRow;horizontal=0;startSize=0;swimlaneHead=0;swimlaneBody=0;fillColor=none;collapsible=0;dropTarget=0;points=[[0,0.5],[1,0.5]];portConstraint=eastwest;top=0;left=0;right=0;bottom=0;fontFamily=&quot;JetBrainsMono Nerd Font Mono&quot;;" parent="HNp_dcf3mtWXbQcFsmoE-66" vertex="1">
          <mxGeometry y="240" width="180" height="30" as="geometry" />
        </mxCell>
        <mxCell id="HNp_dcf3mtWXbQcFsmoE-95" value="" style="shape=partialRectangle;connectable=0;fillColor=none;top=0;left=0;bottom=0;right=0;editable=1;overflow=hidden;fontFamily=&quot;JetBrainsMono Nerd Font Mono&quot;;" parent="HNp_dcf3mtWXbQcFsmoE-94" vertex="1">
          <mxGeometry width="30" height="30" as="geometry">
            <mxRectangle width="30" height="30" as="alternateBounds" />
          </mxGeometry>
        </mxCell>
        <mxCell id="HNp_dcf3mtWXbQcFsmoE-96" value="created_at" style="shape=partialRectangle;connectable=0;fillColor=none;top=0;left=0;bottom=0;right=0;align=left;spacingLeft=6;overflow=hidden;fontFamily=&quot;JetBrainsMono Nerd Font Mono&quot;;" parent="HNp_dcf3mtWXbQcFsmoE-94" vertex="1">
          <mxGeometry x="30" width="150" height="30" as="geometry">
            <mxRectangle width="150" height="30" as="alternateBounds" />
          </mxGeometry>
        </mxCell>
        <mxCell id="iQcwkecCsa2AcmOMzSZV-1" value="" style="edgeStyle=entityRelationEdgeStyle;fontSize=12;html=1;endArrow=ERzeroToMany;startArrow=ERmandOne;rounded=0;exitX=0;exitY=0.5;exitDx=0;exitDy=0;entryX=1;entryY=0.5;entryDx=0;entryDy=0;" edge="1" parent="1" source="HNp_dcf3mtWXbQcFsmoE-2" target="HNp_dcf3mtWXbQcFsmoE-82">
          <mxGeometry width="100" height="100" relative="1" as="geometry">
            <mxPoint x="-387" y="366" as="sourcePoint" />
            <mxPoint x="-287" y="266" as="targetPoint" />
          </mxGeometry>
        </mxCell>
        <mxCell id="iQcwkecCsa2AcmOMzSZV-2" value="" style="edgeStyle=entityRelationEdgeStyle;fontSize=12;html=1;endArrow=ERzeroToMany;startArrow=ERmandOne;rounded=0;entryX=0;entryY=0.5;entryDx=0;entryDy=0;exitX=1;exitY=0.5;exitDx=0;exitDy=0;" edge="1" parent="1" source="HNp_dcf3mtWXbQcFsmoE-2" target="HNp_dcf3mtWXbQcFsmoE-85">
          <mxGeometry width="100" height="100" relative="1" as="geometry">
            <mxPoint x="53" y="466" as="sourcePoint" />
            <mxPoint x="153" y="366" as="targetPoint" />
          </mxGeometry>
        </mxCell>
        <mxCell id="iQcwkecCsa2AcmOMzSZV-4" value="" style="edgeStyle=entityRelationEdgeStyle;fontSize=12;html=1;endArrow=ERzeroToMany;startArrow=ERmandOne;rounded=0;entryX=1;entryY=0.5;entryDx=0;entryDy=0;exitX=0;exitY=0.5;exitDx=0;exitDy=0;" edge="1" parent="1" source="HNp_dcf3mtWXbQcFsmoE-2" target="HNp_dcf3mtWXbQcFsmoE-97">
          <mxGeometry width="100" height="100" relative="1" as="geometry">
            <mxPoint x="-327" y="566" as="sourcePoint" />
            <mxPoint x="-227" y="466" as="targetPoint" />
          </mxGeometry>
        </mxCell>
        <mxCell id="iQcwkecCsa2AcmOMzSZV-6" value="" style="edgeStyle=entityRelationEdgeStyle;fontSize=12;html=1;endArrow=ERzeroToMany;startArrow=ERmandOne;rounded=0;entryX=1;entryY=0.5;entryDx=0;entryDy=0;exitX=0;exitY=0.5;exitDx=0;exitDy=0;" edge="1" parent="1" source="HNp_dcf3mtWXbQcFsmoE-2" target="HNp_dcf3mtWXbQcFsmoE-137">
          <mxGeometry width="100" height="100" relative="1" as="geometry">
            <mxPoint x="-247" y="431" as="sourcePoint" />
            <mxPoint x="-97" y="661" as="targetPoint" />
          </mxGeometry>
        </mxCell>
        <mxCell id="iQcwkecCsa2AcmOMzSZV-7" value="" style="edgeStyle=entityRelationEdgeStyle;fontSize=12;html=1;endArrow=ERzeroToMany;startArrow=ERmandOne;rounded=0;entryX=0;entryY=0.5;entryDx=0;entryDy=0;exitX=1;exitY=0.5;exitDx=0;exitDy=0;" edge="1" parent="1" source="HNp_dcf3mtWXbQcFsmoE-2" target="HNp_dcf3mtWXbQcFsmoE-118">
          <mxGeometry width="100" height="100" relative="1" as="geometry">
            <mxPoint x="-7" y="701" as="sourcePoint" />
            <mxPoint x="103" y="651" as="targetPoint" />
          </mxGeometry>
        </mxCell>
        <mxCell id="iQcwkecCsa2AcmOMzSZV-8" value="" style="edgeStyle=elbowEdgeStyle;fontSize=12;html=1;endArrow=ERzeroToMany;startArrow=ERmandOne;rounded=0;exitX=1;exitY=0.5;exitDx=0;exitDy=0;entryX=1;entryY=0.5;entryDx=0;entryDy=0;" edge="1" parent="1" source="HNp_dcf3mtWXbQcFsmoE-28" target="HNp_dcf3mtWXbQcFsmoE-134">
          <mxGeometry width="100" height="100" relative="1" as="geometry">
            <mxPoint x="-297" y="301" as="sourcePoint" />
            <mxPoint x="-227" y="781" as="targetPoint" />
            <Array as="points">
              <mxPoint x="-257" y="531" />
              <mxPoint x="-577" y="551" />
            </Array>
          </mxGeometry>
        </mxCell>
        <mxCell id="iQcwkecCsa2AcmOMzSZV-11" value="" style="edgeStyle=entityRelationEdgeStyle;fontSize=12;html=1;endArrow=ERzeroToMany;startArrow=ERmandOne;rounded=0;entryX=0;entryY=0.5;entryDx=0;entryDy=0;exitX=1;exitY=0.5;exitDx=0;exitDy=0;" edge="1" parent="1" source="HNp_dcf3mtWXbQcFsmoE-28" target="HNp_dcf3mtWXbQcFsmoE-115">
          <mxGeometry width="100" height="100" relative="1" as="geometry">
            <mxPoint x="-117" y="701" as="sourcePoint" />
            <mxPoint x="103" y="661" as="targetPoint" />
          </mxGeometry>
        </mxCell>
        <mxCell id="iQcwkecCsa2AcmOMzSZV-12" value="" style="edgeStyle=entityRelationEdgeStyle;fontSize=12;html=1;endArrow=ERzeroToMany;startArrow=ERmandOne;rounded=0;entryX=1;entryY=0.5;entryDx=0;entryDy=0;exitX=0;exitY=0.5;exitDx=0;exitDy=0;" edge="1" parent="1" source="HNp_dcf3mtWXbQcFsmoE-67" target="HNp_dcf3mtWXbQcFsmoE-103">
          <mxGeometry width="100" height="100" relative="1" as="geometry">
            <mxPoint x="-97" y="791" as="sourcePoint" />
            <mxPoint x="3" y="691" as="targetPoint" />
          </mxGeometry>
        </mxCell>
      </root>
    </mxGraphModel>
  </diagram>
</mxfile>
